<?xml version="1.0" encoding="UTF-8"?>
<svg id="uuid-221a551f-ab38-4448-ac40-dbfb441f69e9" data-name="Laag 1" xmlns="http://www.w3.org/2000/svg" xmlns:xlink="http://www.w3.org/1999/xlink" viewBox="0 0 595.542 73.72">
  <defs>
    <clipPath id="uuid-b5319715-2edc-4ee7-8198-769e78986ed8">
      <rect width="595.542" height="73.72" style="fill: none;"/>
    </clipPath>
  </defs>
  <g style="clip-path: url(#uuid-b5319715-2edc-4ee7-8198-769e78986ed8); fill: none;">
    <path d="m.106,6.864S67.029,2.348,76.146,1.891c34.521-1.734,69.088,3.778,100.583,16.228,34.229,13.532,62.577,35.636,62.577,35.636,0,0,22.269,18.385,58.463,18.385h.002c36.194,0,58.463-18.385,58.463-18.385,0,0,28.348-22.104,62.577-35.636C450.307,5.67,484.874.157,519.397,1.891c9.116.456,76.038,4.972,76.038,4.972" style="fill: #fff;"/>
    <path d="m.106,6.864S67.029,2.348,76.146,1.891c34.521-1.734,69.088,3.778,100.583,16.228,34.229,13.532,62.577,35.636,62.577,35.636,0,0,22.269,18.385,58.463,18.385h.002c36.194,0,58.463-18.385,58.463-18.385,0,0,28.348-22.104,62.577-35.636C450.307,5.67,484.874.157,519.397,1.891c9.116.456,76.038,4.972,76.038,4.972" style="fill: none; stroke: #dbaa7a; stroke-miterlimit: 10; stroke-width: 2px;"/>
  </g>
  <polyline points="274.299 17.522 297.771 38.033 321.242 17.522" style="fill: none; stroke: #dbaa7a; stroke-linecap: round; stroke-width: 3px;"/>
</svg>